<?xml version="1.0" encoding="utf-8"?>
<!-- Generator: Adobe Illustrator 21.0.0, SVG Export Plug-In . SVG Version: 6.00 Build 0)  -->
<svg version="1.1" id="odishatravel" xmlns="http://www.w3.org/2000/svg" xmlns:xlink="http://www.w3.org/1999/xlink" x="0px"
	 y="0px" viewBox="0 0 278.7 90.6" style="enable-background:new 0 0 278.7 90.6;" xml:space="preserve">
<style type="text/css">
	.st0{fill:#F27121;}
	.st1{fill:#971B1F;}
	.st2{fill:#FFFFFF;}
</style>
<g>
	<g>
		<g>
			<path class="st0" d="M106,70.2c-0.5,2-2.2,3.5-5.3,3.5c-3.9,0-5.8-2.4-5.8-5.4c0-2.9,1.9-5.6,5.9-5.6c3.3,0,4.9,1.7,5.2,3.5h-2.7
				c-0.3-0.8-0.9-1.7-2.6-1.7c-2.2,0-3.1,1.7-3.1,3.7c0,1.8,0.7,3.7,3.1,3.7c1.8,0,2.3-1,2.5-1.6L106,70.2L106,70.2z"/>
			<path class="st0" d="M116.9,69.5c0,2.4-1.7,4.2-4.6,4.2s-4.6-1.8-4.6-4.2c0-2.5,1.7-4.2,4.7-4.2C115.1,65.3,116.9,67,116.9,69.5z
				 M110.3,69.5c0,1.6,0.8,2.5,2,2.5c1.3,0,2-0.9,2-2.5c0-1.7-0.7-2.5-2-2.5C111.1,67,110.3,67.8,110.3,69.5z"/>
			<path class="st0" d="M127.2,71.2c0,0.8,0,1.6,0,2.3h-2.5c0-0.2-0.1-0.7-0.1-0.9c-0.6,0.8-1.4,1.1-2.6,1.1c-1.9,0-3.1-1-3.1-3
				v-5.2h2.6v4.8c0,0.9,0.3,1.6,1.4,1.6c1.2,0,1.7-0.5,1.7-2.1v-4.3h2.6V71.2z"/>
			<path class="st0" d="M129.9,67.7c0-0.8,0-1.5,0-2.2h2.5c0,0.2,0.1,1,0.1,1.4c0.4-0.9,1.4-1.6,3-1.6v2.1c-1.9,0-3,0.4-3,2.6v3.5
				h-2.6V67.7z"/>
			<path class="st0" d="M137.3,64.2v-2h2.6v2H137.3z M137.3,65.5h2.6v8h-2.6V65.5z"/>
			<path class="st0" d="M144.6,70c0,1,0.6,2,1.9,2c1.1,0,1.4-0.4,1.6-0.9h2.6c-0.3,1-1.3,2.6-4.3,2.6c-3.1,0-4.4-2-4.4-4.1
				c0-2.5,1.5-4.3,4.5-4.3c3.2,0,4.3,2,4.3,4c0,0.3,0,0.4,0,0.7C150.8,70,144.6,70,144.6,70z M148.2,68.6c0-0.9-0.4-1.7-1.7-1.7
				c-1.2,0-1.7,0.7-1.8,1.7H148.2z"/>
			<path class="st0" d="M152.9,67.7c0-0.8,0-1.5,0-2.2h2.5c0,0.2,0.1,1,0.1,1.4c0.4-0.9,1.4-1.6,3-1.6v2.1c-1.9,0-3,0.4-3,2.6v3.5
				h-2.6V67.7z"/>
			<path class="st0" d="M162.3,71.1c0.2,0.7,0.8,1,1.8,1s1.3-0.3,1.3-0.8s-0.4-0.7-1.7-1c-3-0.7-3.5-1.5-3.5-2.6
				c0-1.2,1-2.4,3.8-2.4s3.8,1.3,3.9,2.4h-2.4c-0.1-0.3-0.3-0.9-1.5-0.9c-0.8,0-1.1,0.3-1.1,0.7c0,0.4,0.3,0.6,1.8,0.9
				c3.1,0.6,3.6,1.5,3.6,2.7c0,1.3-1.2,2.5-4,2.5s-4-1.2-4.2-2.6h2.2V71.1z"/>
			<path class="st0" d="M174.8,62.8h5.1c2.6,0,4.4,1.3,4.4,3.3c0,2.3-2,3.4-4.5,3.4h-2.4v4h-2.7L174.8,62.8L174.8,62.8z M177.5,67.7
				h2.1c1.2,0,2.1-0.4,2.1-1.5s-0.9-1.5-2.1-1.5h-2.1V67.7z"/>
			<path class="st0" d="M188.2,65.5c0.9,2.7,1.6,5.1,1.8,6.1l0,0c0.3-1.3,1.2-3.7,2-6.1h2.6l-3.3,8h-2.7l-3.2-8H188.2z"/>
			<path class="st0" d="M195.7,65.5h1.4v-2.2h2.6v2.2h1.8v1.7h-1.8v4c0,0.6,0.2,0.8,1,0.8c0.1,0,0.4,0,0.6,0v1.5
				c-0.5,0.2-1.2,0.2-1.7,0.2c-1.8,0-2.4-0.8-2.4-2.2v-4.2h-1.4v-1.8H195.7z"/>
			<path class="st0" d="M203.4,73.6v-2.7h2.8v2.7H203.4z"/>
			<path class="st0" d="M213.3,62.9h2.7v8.8h6.2l-0.3,1.9h-8.6L213.3,62.9L213.3,62.9z"/>
			<path class="st0" d="M224.6,64.3v-2h2.6v2H224.6z M224.6,65.6h2.6v8h-2.6V65.6z"/>
			<path class="st0" d="M229.8,67.7c0-0.7,0-1.4,0-2.1h2.5c0,0.2,0.1,0.7,0.1,1c0.5-0.6,1.2-1.1,2.6-1.1c1.3,0,2.1,0.6,2.4,1.2
				c0.6-0.7,1.3-1.2,2.9-1.2c1.6,0,3,0.9,3,2.9v5.3h-2.5v-5c0-0.7-0.3-1.4-1.4-1.4c-1.1,0-1.5,0.6-1.5,1.8v4.6h-2.5v-4.9
				c0-0.8-0.2-1.5-1.3-1.5c-1,0-1.5,0.6-1.5,1.9v4.5H230v-6H229.8z"/>
			<path class="st0" d="M245.9,64.3v-2h2.6v2H245.9z M245.9,65.6h2.6v8h-2.6V65.6z"/>
			<path class="st0" d="M250.2,65.5h1.4v-2.2h2.6v2.2h1.8v1.7h-1.8v4c0,0.6,0.2,0.8,1,0.8c0.1,0,0.4,0,0.6,0v1.5
				c-0.5,0.2-1.2,0.2-1.7,0.2c-1.8,0-2.4-0.8-2.4-2.2v-4.2h-1.4v-1.8H250.2z"/>
			<path class="st0" d="M259.9,69.9c0,1,0.6,2,1.9,2c1.1,0,1.4-0.4,1.6-0.9h2.6c-0.3,1-1.3,2.6-4.3,2.6c-3.1,0-4.4-2-4.4-4.1
				c0-2.5,1.5-4.3,4.5-4.3c3.2,0,4.3,2,4.3,4c0,0.3,0,0.4,0,0.7C266.1,69.9,259.9,69.9,259.9,69.9z M263.5,68.5
				c0-0.9-0.4-1.7-1.7-1.7c-1.2,0-1.7,0.7-1.8,1.7H263.5z"/>
			<path class="st0" d="M276.9,62.1v9.1c0,0.7,0,1.5,0,2.2h-2.5c-0.1-0.2-0.1-0.7-0.1-0.8c-0.4,0.6-1.3,1-2.6,1
				c-2.4,0-3.9-1.6-3.9-4.1s1.6-4.3,4.2-4.3c1.3,0,2.1,0.4,2.3,0.8v-3.9C274.3,62.1,276.9,62.1,276.9,62.1z M272.4,71.8
				c1.8,0,2-1.3,2-2.4c0-1.4-0.2-2.4-1.9-2.4c-1.3,0-2,0.9-2,2.4C270.5,71,271.2,71.8,272.4,71.8z"/>
		</g>
		<g>
			<path class="st0" d="M96.8,59.8V30.4H82.3v-6.2H118v6.2h-13.9v29.4C104.1,59.8,96.8,59.8,96.8,59.8z"/>
			<path class="st0" d="M123.7,59.8h-7v-23h6.5V40c1.1-1.5,2.1-2.6,3-3.1s1.9-0.7,3-0.7c1.6,0,3.1,0.4,4.6,1.1l-2.2,5.3
				c-1.2-0.7-2.3-1-3.3-1s-1.8,0.2-2.5,0.7s-1.2,1.3-1.6,2.5s-0.6,3.8-0.6,7.7L123.7,59.8L123.7,59.8z"/>
			<path class="st0" d="M144,43.3l-6.4-1c0.7-2.2,1.9-3.9,3.7-4.9c1.7-1.1,4.3-1.6,7.8-1.6c3.1,0,5.5,0.3,7,1
				c1.5,0.6,2.6,1.5,3.2,2.4c0.6,1,0.9,2.8,0.9,5.4l-0.1,7.1c0,2,0.1,3.5,0.3,4.5s0.6,2,1.3,3.1h-6.9c-0.2-0.4-0.4-1-0.7-1.8
				c-0.1-0.4-0.2-0.6-0.2-0.7c-1.2,1-2.5,1.8-3.8,2.3c-1.4,0.5-2.8,0.8-4.4,0.8c-2.7,0-4.9-0.6-6.5-1.9c-1.6-1.3-2.4-2.9-2.4-4.9
				c0-1.3,0.4-2.5,1.1-3.5c0.7-1,1.7-1.8,3-2.3s3.2-1,5.6-1.4c3.3-0.5,5.6-1,6.8-1.5v-0.6c0-1.2-0.3-2-1-2.5s-1.9-0.7-3.8-0.7
				c-1.2,0-2.2,0.2-2.9,0.6C145,41.5,144.5,42.2,144,43.3z M153.4,48.2c-0.9,0.3-2.3,0.6-4.3,0.9c-1.9,0.4-3.2,0.7-3.8,1.1
				c-0.9,0.6-1.4,1.3-1.4,2.1c0,0.9,0.4,1.6,1.1,2.2c0.7,0.6,1.7,0.9,2.8,0.9c1.3,0,2.5-0.4,3.6-1.1c0.8-0.5,1.4-1.2,1.7-2
				c0.2-0.5,0.3-1.5,0.3-3L153.4,48.2L153.4,48.2z"/>
			<path class="st0" d="M191.5,43.1l-6.9,1.1c-0.2-1.2-0.8-2.1-1.6-2.7c-0.8-0.6-1.9-0.9-3.2-0.9c-1.7,0-3.1,0.5-4.2,1.6
				c-1,1-1.6,2.8-1.6,5.3c0,2.7,0.5,4.7,1.6,5.8s2.5,1.7,4.3,1.7c1.3,0,2.4-0.3,3.3-1c0.8-0.7,1.4-1.8,1.8-3.4l6.9,1
				c-0.7,2.7-2.1,4.8-4.1,6.2s-4.8,2.1-8.2,2.1c-3.9,0-7-1.1-9.3-3.2c-2.3-2.1-3.5-5.1-3.5-8.8c0-3.8,1.2-6.8,3.5-8.9
				s5.4-3.2,9.4-3.2c3.2,0,5.8,0.6,7.7,1.8C189.3,38.8,190.6,40.6,191.5,43.1z"/>
			<path class="st0" d="M221,47.4c0-2,0.6-4,1.7-5.9c1.1-1.9,2.8-3.3,4.9-4.3c2.1-1,4.5-1.5,7.1-1.5c4,0,7.3,1.1,9.9,3.4
				c2.6,2.3,3.8,5.1,3.8,8.6c0,3.5-1.3,6.4-3.9,8.7c-2.6,2.3-5.8,3.4-9.8,3.4c-2.4,0-4.7-0.5-7-1.4c-2.2-1-3.9-2.4-5-4.2
				C221.6,52.3,221,50.1,221,47.4z M228.2,47.8c0,2.3,0.6,4,1.9,5.2c1.2,1.2,2.8,1.8,4.6,1.8s3.4-0.6,4.6-1.8c1.2-1.2,1.9-3,1.9-5.3
				s-0.6-4-1.9-5.2c-1.2-1.2-2.8-1.8-4.6-1.8s-3.4,0.6-4.6,1.8C228.8,43.7,228.2,45.5,228.2,47.8z"/>
			<path class="st0" d="M278.1,59.8h-7V48c0-2.5-0.1-4.1-0.4-4.8s-0.8-1.3-1.5-1.7s-1.5-0.6-2.4-0.6c-1.2,0-2.3,0.3-3.3,0.9
				c-1,0.6-1.6,1.3-2,2.3s-0.5,2.7-0.5,5.3v10.4h-7v-23h6.5v3.4c2.3-2.6,5.2-3.9,8.7-3.9c1.5,0,3,0.2,4.2,0.7
				c1.3,0.5,2.3,1.1,2.9,1.9c0.7,0.8,1.1,1.6,1.4,2.6s0.4,2.3,0.4,4.1L278.1,59.8L278.1,59.8z"/>
			<path class="st0" d="M195.3,59.8V27.5h7.1v32.3H195.3z"/>
			<polygon class="st0" points="222.2,36.3 213.6,36.3 202.5,48 213.6,59.8 222.2,59.8 210.8,48 			"/>
		</g>
	</g>
	<rect x="0.6" y="7.7" class="st1" width="71.9" height="71.2"/>
	<path class="st2" d="M49.8,63.1c-0.3,0-0.6-0.1-0.8-0.1c-2.4,0-4.9,0-7.3,0c-0.2,0-0.5,0.1-0.6,0.2c-0.6,0.9-1.4,1.5-2.3,2.2
		c-1.1,0.9-2.3,1.3-3.5,1.7c-0.8,0.3-1.6,0.3-2.4,0.4c-2.2,0.2-4.3-0.1-6.3-1c-1.3-0.6-2.5-1.3-3.4-2.4c-0.7-0.8-1.3-1.7-1.7-2.6
		c-0.4-0.8-0.6-1.7-0.6-2.6c0-1.1,0.3-2.1,0.7-3.1c0.4-1.1,1.1-2,1.9-2.8c1.1-1.1,2.5-1.9,3.9-2.5c0.6-0.2,1.1-0.4,1.7-0.5
		c1.6-0.2,3.1-0.4,4.8-0.1c1.2,0.2,2.3,0.5,3.3,1c1.6,0.8,3,1.9,4.1,3.3c0.3,0.4,1.3,0.5,1.6,0.3c0.1,0,0.1-0.1,0.1-0.2
		c0-0.2,0.1-0.4,0.1-0.6c0-1.1,0-2.2,0-3.3c0-4.9,0-9.8,0-14.7c0-0.7,0.1-0.9,0.9-0.9c1.4,0,2.8,0,4.2,0c4.2,0,8.3,0,12.5,0
		c0.2,0,0.4-0.1,0.7-0.1c-0.2-0.2-0.3-0.4-0.5-0.5c-1.2-0.9-2.5-1.8-3.8-2.7c-0.5-0.4-1-0.5-1.7-0.5c-3.7,0-7.4,0-11,0
		c-8.2,0-16.3,0-24.5,0c-0.8,0-1.5,0-2.3,0.1c-0.2,0-0.3,0.1-0.4,0.2c-0.4,0.3-0.8,0.6-1.2,0.9c-1,0.7-2,1.5-3,2.2
		c-0.1,0.1-0.2,0.1-0.3,0.1c0,0.1,0.1,0.1,0.1,0.2c0.1,0,0.3,0.1,0.4,0.1c0.7,0,1.5,0,2.2,0c6.4,0,12.9,0,19.3,0
		c0.5,0,0.7,0.3,0.7,0.7c0,0.9,0,1.7,0,2.6c0,1.7,0,3.5,0,5.2c0,0.8-0.2,1-0.9,0.9c-1.6,0-3.2-0.1-4.7-0.1c-1.8,0-3.5,0.5-5.1,1
		c-1.1,0.4-2.1,0.8-3.1,1.4c-1.1,0.6-2.3,1.2-3.2,2c-1.8,1.5-3.3,3.2-4.2,5.4c-0.5,1.1-0.8,2.3-1,3.5c-0.2,2.5,0.1,4.8,1.3,7
		c0.9,1.7,2.2,3.3,3.7,4.5c0.9,0.7,2,1.4,3,2c0.7,0.4,1.5,0.8,2.4,1.1c0.9,0.3,1.8,0.6,2.7,0.8c1.1,0.3,2.2,0.5,3.3,0.6
		c2.8,0.3,5.6,0.1,8.4-0.7c0.7-0.2,1.4-0.4,2.1-0.7c1-0.4,2-0.8,2.9-1.3c1.1-0.7,2.2-1.5,3.2-2.4c1.2-1,2.1-2.2,2.9-3.6
		C49.3,64.4,49.5,63.8,49.8,63.1z"/>
	<g>
		<path class="st1" d="M2.6,90v-5.7h-2v-1.2H6v1.2H4V90H2.6z"/>
		<path class="st1" d="M11,90v-6.8h2.9c0.7,0,1.3,0.1,1.6,0.2s0.6,0.3,0.8,0.7c0.2,0.3,0.3,0.7,0.3,1.1c0,0.5-0.2,0.9-0.5,1.3
			c-0.3,0.3-0.7,0.5-1.3,0.6c0.3,0.2,0.5,0.4,0.7,0.6s0.5,0.6,0.8,1.1l0.8,1.3h-1.6l-1-1.5c-0.4-0.5-0.6-0.9-0.7-1
			c-0.1-0.1-0.3-0.2-0.4-0.3c-0.1-0.1-0.4-0.1-0.7-0.1h-0.3V90H11z M12.3,86.1h1c0.7,0,1.1,0,1.2-0.1c0.2-0.1,0.3-0.2,0.4-0.3
			c0.1-0.1,0.1-0.3,0.1-0.5s-0.1-0.4-0.2-0.6c-0.1-0.1-0.3-0.2-0.5-0.3c-0.1,0-0.4,0-1,0h-1.1v1.8H12.3z"/>
		<path class="st1" d="M28.3,90h-1.5l-0.6-1.5h-2.7L23,90h-1.5l2.7-6.8h1.5L28.3,90z M25.8,87.3l-0.9-2.5L24,87.3H25.8z"/>
		<path class="st1" d="M37.8,87.5l1.3,0.4c-0.2,0.7-0.5,1.3-1,1.7c-0.5,0.4-1.1,0.5-1.8,0.5c-0.9,0-1.6-0.3-2.2-0.9
			c-0.6-0.6-0.9-1.5-0.9-2.5c0-1.1,0.3-2,0.9-2.6c0.6-0.6,1.4-0.9,2.3-0.9c0.8,0,1.5,0.2,2,0.7c0.3,0.3,0.5,0.7,0.7,1.3l-1.4,0.3
			c-0.1-0.4-0.2-0.6-0.5-0.8c-0.3-0.2-0.6-0.3-0.9-0.3c-0.5,0-0.9,0.2-1.2,0.5c-0.3,0.4-0.5,0.9-0.5,1.8s0.2,1.5,0.5,1.8
			c0.3,0.4,0.7,0.5,1.2,0.5c0.4,0,0.7-0.1,0.9-0.3C37.5,88.3,37.7,88,37.8,87.5z"/>
		<path class="st1" d="M44.7,90v-6.8h1.4v3l2.8-3h1.8l-2.6,2.7l2.7,4.2H49l-1.9-3.2L46,88v2H44.7z"/>
		<path class="st1" d="M55.7,86.6c0-0.7,0.1-1.3,0.3-1.7c0.2-0.3,0.4-0.7,0.6-0.9c0.3-0.3,0.6-0.5,0.9-0.6c0.4-0.2,0.9-0.3,1.5-0.3
			c1,0,1.8,0.3,2.4,0.9c0.6,0.6,0.9,1.5,0.9,2.6s-0.3,2-0.9,2.6c-0.6,0.6-1.4,0.9-2.4,0.9s-1.8-0.3-2.4-0.9
			C56,88.6,55.7,87.7,55.7,86.6z M57.1,86.6c0,0.8,0.2,1.4,0.5,1.8C58,88.8,58.4,89,59,89c0.5,0,1-0.2,1.3-0.6
			c0.4-0.4,0.5-1,0.5-1.8s-0.2-1.4-0.5-1.7c-0.3-0.4-0.8-0.6-1.4-0.6c-0.6,0-1,0.2-1.4,0.6C57.2,85.2,57.1,85.8,57.1,86.6z"/>
		<path class="st1" d="M66.5,90v-6.8h1.3l2.8,4.5v-4.5h1.3V90h-1.4l-2.7-4.4V90H66.5z"/>
	</g>
	<path class="st1" d="M0.6,3.6h0.6c0,0.2,0.1,0.4,0.2,0.6c0.1,0.1,0.2,0.3,0.5,0.4c0.1-0.1,0.3,0,0.6,0c0.2,0,0.4,0,0.6-0.1
		c0.2-0.1,0.3-0.2,0.4-0.3C3.6,4.1,3.6,4,3.6,3.8c0-0.1,0-0.3-0.1-0.4C3.4,3.3,3.3,3.3,3.1,3.2C3,3.1,2.7,3.1,2.3,3S1.6,2.8,1.4,2.7
		C1.2,2.6,1,2.4,0.9,2.3C0.8,2.1,0.8,1.9,0.8,1.7S0.9,1.3,1,1.1s0.3-0.3,0.6-0.5c0.2-0.1,0.5-0.2,0.8-0.2S3,0.5,3.3,0.6
		s0.5,0.3,0.6,0.5S4,1.5,4.1,1.8H3.5c0-0.3-0.1-0.5-0.3-0.6C3,1.1,2.7,1,2.4,1C2,1,1.8,1,1.6,1.2C1.4,1.3,1.3,1.5,1.3,1.7
		S1.4,2,1.5,2.1c0.1,0.1,0.4,0.2,0.9,0.3s0.8,0.2,1,0.3C3.7,2.8,3.9,2.9,4,3.1c0.1,0.2,0.2,0.4,0.2,0.6C4.2,4,4.1,4.2,4,4.4
		C3.8,4.7,3.6,4.8,3.4,4.9C3.1,5.1,2.8,5.1,2.5,5.1c-0.4,0-0.7-0.1-1-0.2S1,4.6,0.8,4.4C0.7,4.2,0.6,3.9,0.6,3.6z"/>
	<path class="st1" d="M8,0.5h0.6v2.6c0,0.5-0.1,0.8-0.2,1.1C8.3,4.5,8.1,4.7,7.8,4.9C7.6,5,7.2,5.1,6.8,5.1C6.4,5.1,6,5,5.8,4.9
		C5.5,4.8,5.3,4.5,5.2,4.3C5.1,4,5,3.6,5,3.1V0.5h0.6v2.6c0,0.4,0,0.7,0.1,0.9c0.1,0.2,0.2,0.3,0.4,0.4c0.2,0.1,0.4,0.2,0.7,0.2
		c0.4,0,0.8-0.1,0.9-0.3C7.9,4.1,8,3.7,8,3.1V0.5z"/>
	<path class="st1" d="M9.6,5V0.5h2c0.4,0,0.7,0,0.9,0.1S12.9,0.8,13,1s0.2,0.4,0.2,0.7s-0.1,0.6-0.3,0.8c-0.2,0.2-0.5,0.4-1,0.4
		c0.2,0.1,0.3,0.2,0.4,0.2c0.2,0.2,0.3,0.4,0.5,0.6L13.5,5h-0.8l-0.6-0.9c-0.2-0.3-0.3-0.5-0.4-0.6c-0.1-0.1-0.2-0.2-0.3-0.3
		s-0.2-0.1-0.3-0.1s-0.2,0-0.3,0h-0.7v2H9.6V5z M10.2,2.5h1.3c0.3,0,0.5,0,0.6-0.1c0.2-0.1,0.3-0.1,0.4-0.3c0.1-0.1,0.1-0.3,0.1-0.4
		c0-0.2-0.1-0.4-0.2-0.5C12.2,1.1,11.9,1,11.6,1h-1.4C10.2,1,10.2,2.5,10.2,2.5z"/>
	<path class="st1" d="M14.1,5V0.5h3.3V1h-2.7v1.4h2.5V3h-2.5v1.5h2.8V5H14.1z"/>
	<path class="st1" d="M28.7,3.6h0.6c0,0.2,0.1,0.4,0.2,0.6c0.1,0.1,0.2,0.3,0.5,0.4c0.2,0.1,0.4,0.1,0.7,0.1c0.2,0,0.4,0,0.6-0.1
		s0.3-0.2,0.4-0.3c0.1-0.1,0.1-0.2,0.1-0.4c0-0.1,0-0.3-0.1-0.4c-0.1-0.1-0.2-0.2-0.4-0.3c-0.1,0-0.4-0.1-0.8-0.2
		c-0.4-0.1-0.7-0.2-0.9-0.3c-0.2-0.1-0.4-0.3-0.5-0.4c-0.1-0.2-0.2-0.4-0.2-0.6s0.1-0.4,0.2-0.6s0.3-0.3,0.6-0.5
		c0.2-0.1,0.5-0.2,0.8-0.2s0.6,0.1,0.9,0.2s0.5,0.3,0.6,0.5c0.1,0.2,0.2,0.4,0.2,0.7h-0.6c0-0.3-0.1-0.5-0.3-0.6
		C31.1,1.1,30.8,1,30.5,1c-0.4,0-0.6,0.1-0.8,0.2c-0.2,0.1-0.2,0.3-0.2,0.5s0.1,0.3,0.2,0.4c0.1,0.1,0.4,0.2,0.9,0.3s0.8,0.2,1,0.3
		c0.3,0.1,0.5,0.3,0.6,0.5c0.1,0.2,0.2,0.4,0.2,0.6s-0.1,0.5-0.2,0.7c-0.1,0.2-0.3,0.4-0.6,0.5c-0.3,0.1-0.5,0.2-0.9,0.2
		S30,5.1,29.7,5s-0.5-0.3-0.6-0.5C28.8,4.2,28.7,3.9,28.7,3.6z"/>
	<path class="st1" d="M32.6,5l1.7-4.5H35L36.8,5h-0.7l-0.5-1.4h-1.9L33.2,5H32.6z M33.9,3.2h1.5L35,1.9c-0.1-0.4-0.3-0.7-0.3-0.9
		c-0.1,0.3-0.1,0.6-0.2,0.9L33.9,3.2z"/>
	<path class="st1" d="M37.3,5V0.5h3V1h-2.4v1.4H40V3h-2.1v2H37.3z"/>
	<g>
		<path class="st1" d="M53.3,3.6h0.6c0,0.2,0.1,0.4,0.2,0.6c0.1,0.1,0.2,0.3,0.5,0.4c0.2,0.1,0.4,0.1,0.7,0.1c0.2,0,0.4,0,0.6-0.1
			c0.2-0.1,0.3-0.2,0.4-0.3c0.1-0.1,0.1-0.2,0.1-0.4c0-0.1,0-0.3-0.1-0.4c-0.1-0.1-0.2-0.2-0.4-0.3c-0.1,0-0.4-0.1-0.8-0.2
			c-0.4-0.1-0.7-0.2-0.9-0.3s-0.4-0.3-0.5-0.4c-0.1-0.2-0.2-0.4-0.2-0.6s0.1-0.4,0.2-0.6c0.1-0.2,0.3-0.3,0.6-0.5
			c0.2-0.1,0.5-0.2,0.8-0.2s0.6,0.1,0.9,0.2c0.3,0.1,0.5,0.3,0.6,0.5s0.2,0.4,0.2,0.7h-0.6c0-0.3-0.1-0.5-0.3-0.6
			C55.7,1.1,55.4,1,55.1,1c-0.4,0-0.6,0.1-0.8,0.2C54.1,1.3,54,1.5,54,1.7s0.1,0.3,0.2,0.4c0.1,0.1,0.4,0.2,0.9,0.3s0.8,0.2,1,0.3
			c0.3,0.1,0.5,0.3,0.6,0.5s0.2,0.4,0.2,0.6s-0.1,0.5-0.2,0.7c-0.1,0.2-0.3,0.4-0.6,0.5s-0.5,0.2-0.9,0.2s-0.7-0.1-1-0.2
			s-0.5-0.3-0.6-0.5C53.4,4.2,53.3,3.9,53.3,3.6z"/>
		<path class="st1" d="M58.5,5l-1.2-4.5h0.6l0.7,3c0.1,0.3,0.1,0.6,0.2,0.9C58.9,3.9,59,3.6,59,3.6l0.9-3h0.7l0.6,2.3
			c0.2,0.6,0.3,1.1,0.4,1.6c0.1-0.3,0.1-0.6,0.2-1l0.7-2.9h0.6L61.8,5h-0.6l-0.9-3.4c-0.1-0.3-0.1-0.5-0.1-0.5
			c0,0.2-0.1,0.4-0.1,0.5l-1,3.4H58.5z"/>
		<path class="st1" d="M63.7,5V0.5h0.6V5H63.7z"/>
		<path class="st1" d="M65.4,5V0.5h3V1H66v1.4h2.1V3H66v2H65.4z"/>
		<path class="st1" d="M70.4,5V1h-1.5V0.5h3.6V1H71v4H70.4z"/>
	</g>
	<path class="st2" d="M23.8,23.5c0,0.1,0,0.1,0,0.2c0.4,0.3,0.9,0.6,1.3,0.9c0.3,0.2,0.3,0.5,0,0.7c-0.2,0.1-0.3,0.1-0.5,0.1
		c-1,0-2,0.1-3,0.1c-2.5,0-5,0-7.4,0.1c-1,0-1.9-0.1-2.8,0.5c-0.8,0.5-1.7,0.9-2.5,1.4c0.2,0.2,0.4,0.2,0.6,0.2c4.4,0,8.8,0,13.2,0
		c8.2,0,16.3,0,24.5,0c5.1,0,10.3,0,15.4,0c0.4,0,0.7-0.1,1.1-0.2c-0.4-0.3-0.8-0.5-1.2-0.6c-0.8-0.3-1.5-0.6-2.3-0.9
		c-0.4-0.1-0.8-0.3-1.2-0.3c-3.6,0.1-7.3,0.2-10.9,0.3c-0.9,0-1.7-0.3-2.3-0.9c-0.6-0.5-0.5-1,0.1-1.4c0.8-0.6,1.6-1.1,2.4-1.6
		c0.3-0.2,0.5-0.4,0.8-0.7c0.2-0.2,0.2-0.5,0-0.7c-0.6-0.9-1.5-1.2-2.5-1.5c-1.3-0.3-2.6-0.6-3.9-0.8c-1.5-0.3-2.9-0.6-4.4-0.9
		c-2-0.4-4-0.9-6-1.4c-1.9-0.4-3.8-0.8-5.7-1.2c-1.1-0.2-2.3-0.5-3.4-0.7c-0.3-0.1-0.6,0-1-0.1c0,0.1-0.1,0.1-0.1,0.2
		c0.2,0.1,0.3,0.2,0.5,0.4c0.6,0.4,1.1,0.8,1.7,1.2c0.5,0.4,1,0.8,1.6,1.2c0.9,0.7,1.8,1.3,2.6,1.9c0.7,0.6,0.7,1.5,0.3,2.2
		c-0.4,0.5-0.7,1-1.1,1.6c-0.3,0.4-0.6,0.6-1,0.5c-0.6,0-1.2-0.1-1.7-0.1C24.3,23.3,24,23.4,23.8,23.5z"/>
	<path class="st1" d="M40.9,5V0.5h3.3V1h-2.7v1.4H44V3h-2.5v1.5h2.8V5H40.9z"/>
</g>
</svg>
